<svg version="1.1" id="Layer_1" xmlns="http://www.w3.org/2000/svg" xmlns:xlink="http://www.w3.org/1999/xlink" x="0px" y="0px"
	 width="100%" viewBox="0 0 1024 672" enable-background="new 0 0 1024 672" xml:space="preserve">
<path fill="#000000" opacity="1.000000" stroke="none" 
	d="
M153.445099,420.886292 
	C144.512695,423.928497 135.929123,421.781250 130.832169,415.495636 
	C125.254799,408.617584 124.471069,399.526978 129.426270,391.765259 
	C137.046738,379.828796 147.704590,370.674469 158.235046,361.446228 
	C160.606186,359.368317 162.969376,357.281372 166.102783,354.524017 
	C154.971619,353.862640 144.841095,355.618469 134.671661,355.648346 
	C127.661194,355.668945 120.693504,355.650238 113.962975,353.361755 
	C105.155983,350.367279 99.304604,342.075378 99.716248,333.239532 
	C100.173264,323.430054 105.918686,316.258789 116.132233,314.672302 
	C130.172073,312.491425 144.365631,313.492798 158.494385,314.345154 
	C160.604691,314.472504 162.680023,314.929413 165.742813,314.109192 
	C159.913620,308.801697 154.597427,304.142517 149.488388,299.266296 
	C142.153107,292.265259 134.233551,285.746613 129.244507,276.655273 
	C122.440033,264.255798 127.782066,250.344574 140.813797,246.431808 
	C147.040421,244.562286 152.682602,245.989685 157.757996,249.822662 
	C167.711349,257.339508 174.759949,267.599213 182.973022,276.755493 
	C185.939865,280.063080 188.484070,283.753784 192.201035,286.959778 
	C190.806366,270.752441 192.790543,255.026886 192.939178,239.263931 
	C193.090652,223.198532 209.327866,214.391052 222.386444,222.608444 
	C228.927734,226.724716 230.788544,233.404877 231.338943,240.653229 
	C232.411697,254.780502 232.950821,268.902679 231.387024,283.032623 
	C231.300095,283.818237 231.495819,284.635132 231.582962,285.725037 
	C233.865677,285.249878 234.609970,283.432007 235.708450,282.121063 
	C244.264664,271.909851 252.523270,261.429169 262.249023,252.266800 
	C271.737671,243.327744 284.132690,242.973862 292.181030,251.281372 
	C299.242859,258.570587 300.029236,269.138519 293.926117,277.790222 
	C287.257446,287.243652 278.751862,295.016693 270.372894,302.883148 
	C266.259705,306.744751 262.041107,310.494171 257.012390,315.075989 
	C260.832642,314.894806 263.688721,314.942108 266.495850,314.594360 
	C278.285309,313.133789 290.124664,313.567932 301.936981,313.747620 
	C315.992706,313.961365 324.706390,322.764404 324.288391,335.833679 
	C324.034180,343.782227 320.148529,349.394867 312.795624,352.416229 
	C307.823578,354.459229 302.568726,355.311768 297.190674,355.320190 
	C290.859497,355.330078 284.526581,355.222321 278.197571,355.338684 
	C272.045013,355.451843 265.998871,353.583099 259.721893,354.367859 
	C259.535828,356.353180 261.269836,356.792694 262.263092,357.675171 
	C272.472687,366.745667 282.998688,375.507812 291.637482,386.168396 
	C296.254059,391.865387 299.202972,398.194855 297.541473,405.959351 
	C294.348297,420.881409 278.858246,427.074402 266.237640,418.355377 
	C258.882080,413.273743 253.346100,406.342133 247.438278,399.800537 
	C242.351044,394.167603 237.405685,388.406525 231.751801,381.966492 
	C231.349243,386.325134 231.528152,389.555725 231.682999,392.848785 
	C232.315353,406.298981 233.514511,419.805267 231.255447,433.188599 
	C229.808624,441.759949 222.718918,447.642303 214.242065,448.237701 
	C205.269867,448.867920 197.731842,444.066742 194.567291,435.919159 
	C192.767120,431.284363 192.712219,426.477264 192.698959,421.651428 
	C192.663315,408.669739 192.686783,395.687897 192.686783,381.241852 
	C187.575272,387.251343 183.337326,392.403778 178.916138,397.393829 
	C171.310120,405.978577 164.124130,415.038300 153.445099,420.886292 
z"/>
<path fill="#000000" opacity="1.000000" stroke="none" 
	d="
M478.620819,416.618103 
	C472.512085,425.393433 464.456268,427.440338 454.278595,427.197510 
	C426.636322,426.537964 398.967560,426.996765 371.309296,426.992767 
	C364.698151,426.991821 364.661652,426.938629 364.661316,420.284912 
	C364.658325,361.136169 364.660309,301.987457 364.667328,242.838730 
	C364.668121,236.148346 364.705688,236.053619 371.261292,236.050629 
	C401.752014,236.036713 432.242767,236.097641 462.733368,236.043030 
	C466.280579,236.036667 469.023529,237.007050 471.600189,239.615417 
	C478.739868,246.842804 486.095642,253.861252 493.497345,260.822632 
	C495.975433,263.153290 497.210968,265.649994 497.165039,269.121765 
	C497.012970,280.616333 497.016357,292.114838 497.139954,303.609924 
	C497.175232,306.893097 496.052826,309.239502 493.624451,311.415375 
	C487.808533,316.626617 482.197632,322.066742 476.301910,327.604248 
	C479.372345,332.568817 483.729401,336.015656 488.037933,339.156860 
	C495.638489,344.698151 498.299011,351.502777 497.548004,360.884094 
	C496.686554,371.645203 497.251801,382.529572 497.406128,393.357422 
	C497.452393,396.602203 496.567322,399.062347 494.186188,401.306427 
	C488.974426,406.218384 483.959290,411.338959 478.620819,416.618103 
M428.500000,346.148712 
	C419.848633,346.149261 411.192993,346.311035 402.547821,346.079712 
	C398.454620,345.970184 396.953522,347.351227 397.016785,351.507538 
	C397.209198,364.148926 397.228180,376.797302 397.018372,389.438019 
	C396.947906,393.684662 398.586731,394.787964 402.580566,394.757385 
	C422.211304,394.607208 441.844452,394.615540 461.475281,394.761414 
	C465.368622,394.790314 466.762451,393.498901 466.711334,389.580536 
	C466.544189,376.772095 466.504608,363.957397 466.738037,351.151001 
	C466.813232,347.026703 465.155914,346.022125 461.442657,346.074890 
	C450.796906,346.226227 440.147797,346.140594 428.500000,346.148712 
M465.717773,308.175446 
	C465.717529,296.844452 465.656799,285.512909 465.756287,274.182770 
	C465.783844,271.040741 465.195679,269.193695 461.419373,269.217804 
	C441.424316,269.345673 421.427979,269.334412 401.432465,269.258698 
	C398.131805,269.246216 397.059662,270.646240 397.084290,273.762939 
	C397.177826,285.592926 397.189056,297.424255 397.117432,309.254395 
	C397.098419,312.393250 398.207275,313.707642 401.502075,313.692169 
	C421.330811,313.598907 441.160553,313.604095 460.989258,313.708466 
	C464.391724,313.726379 466.033142,312.567932 465.717773,308.175446 
z"/>
<path fill="#000000" opacity="1.000000" stroke="none" 
	d="
M691.000000,426.926056 
	C675.004028,426.924530 659.506653,426.809143 644.012817,426.989838 
	C639.314392,427.044678 637.636963,425.477295 637.654541,420.630981 
	C637.802856,379.642090 637.809326,338.652039 637.622803,297.663422 
	C637.599792,292.608612 639.522949,291.584717 644.070312,291.612122 
	C671.062378,291.774811 698.055969,291.695099 725.049011,291.696808 
	C732.802917,291.697296 732.810913,291.697205 732.821106,283.702850 
	C732.838684,269.873077 732.990417,256.041077 732.774170,242.214859 
	C732.703064,237.672638 734.259216,235.891693 738.791992,236.032303 
	C745.783386,236.249146 752.785645,236.132874 759.783264,236.124237 
	C763.063538,236.120193 764.435181,237.477524 764.430359,240.970795 
	C764.347778,301.288422 764.322266,361.606293 764.454651,421.923767 
	C764.465149,426.697418 761.959656,426.955719 758.482666,426.950775 
	C736.155090,426.919006 713.827576,426.929382 691.000000,426.926056 
M732.850098,367.500000 
	C732.844238,354.675079 732.749451,341.849152 732.889099,329.025818 
	C732.928772,325.379272 731.625366,323.968536 727.967712,323.985199 
	C709.980042,324.067078 691.991455,324.045227 674.003784,323.950043 
	C670.627747,323.932190 669.270142,325.119781 669.288574,328.622406 
	C669.396362,349.108398 669.396545,369.595459 669.290405,390.081451 
	C669.272705,393.500763 670.377869,394.790894 673.889648,394.767090 
	C692.043579,394.644012 710.199280,394.637665 728.353088,394.763275 
	C731.959839,394.788239 732.949219,393.300964 732.882507,389.984955 
	C732.738586,382.825989 732.846130,375.661957 732.850098,367.500000 
z"/>
<path fill="#000000" opacity="1.000000" stroke="none" 
	d="
M832.000122,291.681152 
	C853.653259,291.684662 874.807495,291.800964 895.958801,291.604431 
	C900.626526,291.561096 902.348206,292.831512 902.329285,297.753021 
	C902.171204,338.892761 902.197571,380.033539 902.330872,421.173523 
	C902.345032,425.554016 900.796875,427.133789 896.535278,427.010620 
	C889.878357,426.818268 883.207581,426.807129 876.551147,427.004913 
	C872.179016,427.134827 870.536133,425.301086 870.815552,421.042847 
	C871.039551,417.629303 870.860779,414.189392 870.860779,410.761169 
	C870.373108,410.752808 869.885498,410.744446 869.397827,410.736053 
	C869.397827,414.567108 869.268066,418.403870 869.436829,422.227478 
	C869.585632,425.597931 868.349731,427.012665 864.841919,426.998718 
	C841.523865,426.906006 818.205139,426.908722 794.886963,426.974945 
	C791.031555,426.985901 789.662537,425.407318 789.679993,421.569763 
	C789.786865,398.085236 789.818604,374.599304 789.638184,351.115631 
	C789.604248,346.705536 791.493408,345.822418 795.331970,345.838501 
	C818.316956,345.934814 841.302429,345.887207 864.287781,345.871460 
	C870.881165,345.866943 870.886902,345.842010 870.918579,339.172363 
	C870.933655,336.007782 870.693909,332.822540 870.976929,329.683380 
	C871.383728,325.171448 869.369751,323.996094 865.147339,324.022186 
	C842.329529,324.163300 819.510315,324.089691 796.691589,324.073303 
	C789.785645,324.068359 789.732117,323.997040 789.720398,317.125458 
	C789.709045,310.463043 789.895142,303.793762 789.643433,297.140778 
	C789.489807,293.078552 790.831238,291.542877 795.024597,291.614258 
	C807.179932,291.821136 819.341125,291.683716 832.000122,291.681152 
M820.339661,377.576904 
	C820.343750,382.073486 820.391663,386.570648 820.334900,391.066467 
	C820.303223,393.565979 821.356201,394.691010 823.910156,394.683960 
	C838.232483,394.644348 852.554993,394.646210 866.877319,394.695221 
	C869.696350,394.704895 870.692810,393.365143 870.662170,390.697205 
	C870.591431,384.536041 870.585388,378.372894 870.661316,372.211884 
	C870.695679,369.422607 869.431458,368.363983 866.726196,368.371826 
	C852.570374,368.412994 838.414246,368.415344 824.258606,368.344574 
	C821.550171,368.331024 820.177673,369.286133 820.331726,372.113556 
	C820.413208,373.607910 820.344971,375.110474 820.339661,377.576904 
z"/>
<path fill="#000000" opacity="1.000000" stroke="none" 
	d="
M611.011597,311.000000 
	C611.017883,347.494019 611.032227,383.488007 611.025818,419.482025 
	C611.024536,426.807770 610.879028,426.930298 603.406616,426.944489 
	C596.907776,426.956818 590.406860,426.832245 583.910583,426.957214 
	C580.205505,427.028503 578.588928,425.823730 578.595520,421.779510 
	C578.693604,361.622955 578.693115,301.466064 578.588074,241.309494 
	C578.580994,237.257248 580.252991,236.030640 583.901428,236.070114 
	C591.065979,236.147644 598.235474,236.225601 605.396179,236.042648 
	C609.751831,235.931366 611.144531,237.734848 611.114197,242.011917 
	C610.952209,264.840363 611.022461,287.670471 611.011597,311.000000 
z"/>
<path fill="#000000" opacity="1.000000" stroke="none" 
	d="
M524.578186,334.999878 
	C524.578674,322.011597 524.708313,309.521301 524.508118,297.036285 
	C524.441284,292.868073 525.950439,291.488647 530.021973,291.623657 
	C537.173950,291.860840 544.353638,291.959595 551.494751,291.592438 
	C556.569824,291.331512 557.186218,293.885925 557.176575,297.983704 
	C557.092834,333.616608 557.126526,369.249847 557.122559,404.882965 
	C557.121887,410.710693 557.040283,416.539459 557.126404,422.365784 
	C557.173218,425.534607 555.743347,426.931000 552.640808,426.924438 
	C544.648682,426.907562 536.656006,426.892517 528.664551,426.977875 
	C525.428345,427.012421 524.467529,425.646240 524.481628,422.417572 
	C524.608032,393.445435 524.569031,364.472534 524.578186,334.999878 
z"/>
<path fill="#000000" opacity="1.000000" stroke="none" 
	d="
M524.580444,247.033310 
	C524.875732,236.188095 522.297302,236.069641 535.105164,236.054245 
	C540.764404,236.047440 546.424194,236.134079 552.082764,236.080063 
	C555.558533,236.046875 557.241882,237.376236 557.164001,241.109573 
	C556.993958,249.262436 557.013000,257.422119 557.126709,265.576660 
	C557.177795,269.245453 555.653564,270.539825 552.029358,270.453278 
	C544.376892,270.270660 536.712891,270.261505 529.061707,270.473969 
	C525.303101,270.578339 523.982178,269.016327 524.114929,265.481812 
	C524.339600,259.498199 524.432312,253.509659 524.580444,247.033310 
z"/>
</svg>